<mxfile host="Electron" modified="2023-09-25T15:16:04.110Z" agent="Mozilla/5.0 (Windows NT 10.0; Win64; x64) AppleWebKit/537.36 (KHTML, like Gecko) draw.io/21.5.0 Chrome/112.0.5615.204 Electron/24.5.1 Safari/537.36" etag="yxCDwAKD5QqE5yvJbfMS" version="21.5.0" type="device">
  <diagram name="Page-1" id="6X8RbDpEI84VSe6D49C8">
    <mxGraphModel dx="1418" dy="2004" grid="1" gridSize="10" guides="1" tooltips="1" connect="1" arrows="1" fold="1" page="1" pageScale="1" pageWidth="827" pageHeight="1169" math="0" shadow="0">
      <root>
        <mxCell id="0" />
        <mxCell id="1" parent="0" />
        <mxCell id="s79YdKbr_bM9OvfMAuBh-2" value="HASH" style="shape=mxgraph.bpmn.data;labelPosition=center;verticalLabelPosition=bottom;align=center;verticalAlign=top;size=15;html=1;" vertex="1" parent="1">
          <mxGeometry x="394" y="340" width="40" height="60" as="geometry" />
        </mxCell>
        <mxCell id="s79YdKbr_bM9OvfMAuBh-8" style="edgeStyle=orthogonalEdgeStyle;rounded=0;orthogonalLoop=1;jettySize=auto;html=1;entryX=0.5;entryY=1;entryDx=0;entryDy=0;" edge="1" parent="1" source="s79YdKbr_bM9OvfMAuBh-4" target="s79YdKbr_bM9OvfMAuBh-5">
          <mxGeometry relative="1" as="geometry" />
        </mxCell>
        <mxCell id="s79YdKbr_bM9OvfMAuBh-4" value="Demande le mdp pour continuer" style="rounded=1;whiteSpace=wrap;html=1;" vertex="1" parent="1">
          <mxGeometry x="120" y="540" width="120" height="60" as="geometry" />
        </mxCell>
        <mxCell id="s79YdKbr_bM9OvfMAuBh-9" style="edgeStyle=orthogonalEdgeStyle;rounded=0;orthogonalLoop=1;jettySize=auto;html=1;entryX=0.5;entryY=1;entryDx=0;entryDy=0;" edge="1" parent="1" source="s79YdKbr_bM9OvfMAuBh-5" target="s79YdKbr_bM9OvfMAuBh-6">
          <mxGeometry relative="1" as="geometry" />
        </mxCell>
        <mxCell id="s79YdKbr_bM9OvfMAuBh-38" style="edgeStyle=orthogonalEdgeStyle;rounded=0;orthogonalLoop=1;jettySize=auto;html=1;entryX=0.5;entryY=1;entryDx=0;entryDy=0;entryPerimeter=0;" edge="1" parent="1" source="s79YdKbr_bM9OvfMAuBh-5" target="s79YdKbr_bM9OvfMAuBh-2">
          <mxGeometry relative="1" as="geometry" />
        </mxCell>
        <mxCell id="s79YdKbr_bM9OvfMAuBh-39" value="Ci lcest le premier login" style="edgeLabel;html=1;align=center;verticalAlign=middle;resizable=0;points=[];" vertex="1" connectable="0" parent="s79YdKbr_bM9OvfMAuBh-38">
          <mxGeometry x="-0.4508" y="-1" relative="1" as="geometry">
            <mxPoint x="21" as="offset" />
          </mxGeometry>
        </mxCell>
        <mxCell id="s79YdKbr_bM9OvfMAuBh-5" value="Transforme le mdp en un HASH dans une variable temporaire." style="rounded=0;whiteSpace=wrap;html=1;" vertex="1" parent="1">
          <mxGeometry x="120" y="440" width="120" height="60" as="geometry" />
        </mxCell>
        <mxCell id="s79YdKbr_bM9OvfMAuBh-11" style="edgeStyle=orthogonalEdgeStyle;rounded=0;orthogonalLoop=1;jettySize=auto;html=1;entryX=0.5;entryY=1;entryDx=0;entryDy=0;" edge="1" parent="1" source="s79YdKbr_bM9OvfMAuBh-6" target="s79YdKbr_bM9OvfMAuBh-10">
          <mxGeometry relative="1" as="geometry" />
        </mxCell>
        <mxCell id="s79YdKbr_bM9OvfMAuBh-6" value="On compare le HASH pour vérifier sa validité." style="rounded=1;whiteSpace=wrap;html=1;" vertex="1" parent="1">
          <mxGeometry x="120" y="340" width="120" height="60" as="geometry" />
        </mxCell>
        <mxCell id="s79YdKbr_bM9OvfMAuBh-7" value="" style="endArrow=classic;startArrow=classic;html=1;rounded=0;exitX=1;exitY=0.5;exitDx=0;exitDy=0;entryX=0;entryY=0.5;entryDx=0;entryDy=0;entryPerimeter=0;" edge="1" parent="1" source="s79YdKbr_bM9OvfMAuBh-6" target="s79YdKbr_bM9OvfMAuBh-2">
          <mxGeometry width="50" height="50" relative="1" as="geometry">
            <mxPoint x="300" y="450" as="sourcePoint" />
            <mxPoint x="350" y="400" as="targetPoint" />
          </mxGeometry>
        </mxCell>
        <mxCell id="s79YdKbr_bM9OvfMAuBh-13" style="edgeStyle=orthogonalEdgeStyle;rounded=0;orthogonalLoop=1;jettySize=auto;html=1;entryX=0.5;entryY=1;entryDx=0;entryDy=0;" edge="1" parent="1" source="s79YdKbr_bM9OvfMAuBh-10" target="s79YdKbr_bM9OvfMAuBh-14">
          <mxGeometry relative="1" as="geometry">
            <mxPoint x="70" y="160" as="targetPoint" />
            <Array as="points">
              <mxPoint x="70" y="250" />
            </Array>
          </mxGeometry>
        </mxCell>
        <mxCell id="s79YdKbr_bM9OvfMAuBh-10" value="Accède au chat." style="rounded=1;whiteSpace=wrap;html=1;" vertex="1" parent="1">
          <mxGeometry x="120" y="220" width="120" height="60" as="geometry" />
        </mxCell>
        <mxCell id="s79YdKbr_bM9OvfMAuBh-27" style="edgeStyle=orthogonalEdgeStyle;rounded=0;orthogonalLoop=1;jettySize=auto;html=1;entryX=0.5;entryY=1;entryDx=0;entryDy=0;" edge="1" parent="1" source="s79YdKbr_bM9OvfMAuBh-14" target="s79YdKbr_bM9OvfMAuBh-16">
          <mxGeometry relative="1" as="geometry" />
        </mxCell>
        <mxCell id="s79YdKbr_bM9OvfMAuBh-14" value="Entrez le mdp" style="rounded=1;whiteSpace=wrap;html=1;" vertex="1" parent="1">
          <mxGeometry x="10" y="-20" width="120" height="60" as="geometry" />
        </mxCell>
        <mxCell id="s79YdKbr_bM9OvfMAuBh-34" style="edgeStyle=orthogonalEdgeStyle;rounded=0;orthogonalLoop=1;jettySize=auto;html=1;entryX=0.5;entryY=1;entryDx=0;entryDy=0;" edge="1" parent="1" source="s79YdKbr_bM9OvfMAuBh-16" target="s79YdKbr_bM9OvfMAuBh-32">
          <mxGeometry relative="1" as="geometry" />
        </mxCell>
        <mxCell id="s79YdKbr_bM9OvfMAuBh-40" style="edgeStyle=orthogonalEdgeStyle;rounded=0;orthogonalLoop=1;jettySize=auto;html=1;entryX=0.5;entryY=1;entryDx=0;entryDy=0;entryPerimeter=0;" edge="1" parent="1" source="s79YdKbr_bM9OvfMAuBh-16" target="s79YdKbr_bM9OvfMAuBh-31">
          <mxGeometry relative="1" as="geometry" />
        </mxCell>
        <mxCell id="s79YdKbr_bM9OvfMAuBh-43" value="Ci cest le premier login&amp;nbsp;" style="edgeLabel;html=1;align=center;verticalAlign=middle;resizable=0;points=[];" vertex="1" connectable="0" parent="s79YdKbr_bM9OvfMAuBh-40">
          <mxGeometry x="-0.472" y="-1" relative="1" as="geometry">
            <mxPoint x="14" as="offset" />
          </mxGeometry>
        </mxCell>
        <mxCell id="s79YdKbr_bM9OvfMAuBh-16" value="Transforme le mdp en un HASH dans une variable temporaire." style="rounded=0;whiteSpace=wrap;html=1;" vertex="1" parent="1">
          <mxGeometry x="10" y="-110" width="120" height="60" as="geometry" />
        </mxCell>
        <mxCell id="s79YdKbr_bM9OvfMAuBh-29" style="edgeStyle=orthogonalEdgeStyle;rounded=0;orthogonalLoop=1;jettySize=auto;html=1;entryX=0.5;entryY=1;entryDx=0;entryDy=0;" edge="1" parent="1" source="s79YdKbr_bM9OvfMAuBh-21" target="s79YdKbr_bM9OvfMAuBh-49">
          <mxGeometry relative="1" as="geometry">
            <mxPoint x="70" y="-665" as="targetPoint" />
          </mxGeometry>
        </mxCell>
        <mxCell id="s79YdKbr_bM9OvfMAuBh-21" value="Récupère le txt des messages et déchiffre-les avec la clé." style="rounded=0;whiteSpace=wrap;html=1;" vertex="1" parent="1">
          <mxGeometry x="10" y="-595" width="120" height="60" as="geometry" />
        </mxCell>
        <mxCell id="s79YdKbr_bM9OvfMAuBh-22" value="TXT MSG" style="shape=mxgraph.bpmn.data;labelPosition=center;verticalLabelPosition=bottom;align=center;verticalAlign=top;size=15;html=1;" vertex="1" parent="1">
          <mxGeometry x="270" y="-595" width="40" height="60" as="geometry" />
        </mxCell>
        <mxCell id="s79YdKbr_bM9OvfMAuBh-25" value="" style="endArrow=classic;startArrow=classic;html=1;rounded=0;exitX=1;exitY=0.5;exitDx=0;exitDy=0;entryX=0;entryY=0.5;entryDx=0;entryDy=0;entryPerimeter=0;" edge="1" parent="1" source="s79YdKbr_bM9OvfMAuBh-21" target="s79YdKbr_bM9OvfMAuBh-22">
          <mxGeometry width="50" height="50" relative="1" as="geometry">
            <mxPoint x="130" y="-515" as="sourcePoint" />
            <mxPoint x="284" y="-515" as="targetPoint" />
          </mxGeometry>
        </mxCell>
        <mxCell id="s79YdKbr_bM9OvfMAuBh-31" value="10 char du hash" style="shape=mxgraph.bpmn.data;labelPosition=center;verticalLabelPosition=bottom;align=center;verticalAlign=top;size=15;html=1;" vertex="1" parent="1">
          <mxGeometry x="270" y="-230" width="40" height="60" as="geometry" />
        </mxCell>
        <mxCell id="s79YdKbr_bM9OvfMAuBh-46" style="edgeStyle=orthogonalEdgeStyle;rounded=0;orthogonalLoop=1;jettySize=auto;html=1;entryX=0.5;entryY=1;entryDx=0;entryDy=0;" edge="1" parent="1" source="s79YdKbr_bM9OvfMAuBh-32" target="s79YdKbr_bM9OvfMAuBh-44">
          <mxGeometry relative="1" as="geometry" />
        </mxCell>
        <mxCell id="s79YdKbr_bM9OvfMAuBh-32" value="Vérifie 10 caractères du HASH et si ceux-ci correspondent, continue." style="rounded=0;whiteSpace=wrap;html=1;" vertex="1" parent="1">
          <mxGeometry x="10" y="-230" width="120" height="60" as="geometry" />
        </mxCell>
        <mxCell id="s79YdKbr_bM9OvfMAuBh-33" value="" style="endArrow=classic;startArrow=classic;html=1;rounded=0;exitX=1;exitY=0.5;exitDx=0;exitDy=0;entryX=0;entryY=0.5;entryDx=0;entryDy=0;entryPerimeter=0;" edge="1" parent="1" source="s79YdKbr_bM9OvfMAuBh-32" target="s79YdKbr_bM9OvfMAuBh-31">
          <mxGeometry width="50" height="50" relative="1" as="geometry">
            <mxPoint x="130" y="-240" as="sourcePoint" />
            <mxPoint x="270" y="-240" as="targetPoint" />
          </mxGeometry>
        </mxCell>
        <mxCell id="s79YdKbr_bM9OvfMAuBh-36" value="Plus les HASH sont grands, plus il est difficile de les compromettre. On pourrait imaginer de couper les premiers hash en deux, créer deux HASH et les concaténer pour obtenir une grande clé, par exemple." style="text;html=1;strokeColor=none;fillColor=none;align=center;verticalAlign=middle;whiteSpace=wrap;rounded=0;" vertex="1" parent="1">
          <mxGeometry x="360" y="-330" width="160" height="125" as="geometry" />
        </mxCell>
        <mxCell id="s79YdKbr_bM9OvfMAuBh-37" value="Avantage de cette méthode : le code peut être transparent et sécurisé, et pourrait constituer une couche supplémentaire au secure boot." style="text;html=1;strokeColor=none;fillColor=none;align=center;verticalAlign=middle;whiteSpace=wrap;rounded=0;" vertex="1" parent="1">
          <mxGeometry x="290" y="610" width="180" height="90" as="geometry" />
        </mxCell>
        <mxCell id="s79YdKbr_bM9OvfMAuBh-47" style="edgeStyle=orthogonalEdgeStyle;rounded=0;orthogonalLoop=1;jettySize=auto;html=1;entryX=0.5;entryY=1;entryDx=0;entryDy=0;" edge="1" parent="1" source="s79YdKbr_bM9OvfMAuBh-44" target="s79YdKbr_bM9OvfMAuBh-45">
          <mxGeometry relative="1" as="geometry" />
        </mxCell>
        <mxCell id="s79YdKbr_bM9OvfMAuBh-44" value="Récupère chaque caractère du HASH et génère un autre HASH à partir de ceux-ci." style="rounded=0;whiteSpace=wrap;html=1;" vertex="1" parent="1">
          <mxGeometry x="10" y="-350" width="120" height="70" as="geometry" />
        </mxCell>
        <mxCell id="s79YdKbr_bM9OvfMAuBh-48" style="edgeStyle=orthogonalEdgeStyle;rounded=0;orthogonalLoop=1;jettySize=auto;html=1;entryX=0.5;entryY=1;entryDx=0;entryDy=0;" edge="1" parent="1" source="s79YdKbr_bM9OvfMAuBh-45" target="s79YdKbr_bM9OvfMAuBh-21">
          <mxGeometry relative="1" as="geometry" />
        </mxCell>
        <mxCell id="s79YdKbr_bM9OvfMAuBh-45" value="Retire tous les caractères ASCII de la clé et récupère les 32 derniers caractères de la clé." style="rounded=0;whiteSpace=wrap;html=1;" vertex="1" parent="1">
          <mxGeometry x="10" y="-477" width="120" height="80" as="geometry" />
        </mxCell>
        <mxCell id="s79YdKbr_bM9OvfMAuBh-51" style="edgeStyle=orthogonalEdgeStyle;rounded=0;orthogonalLoop=1;jettySize=auto;html=1;entryX=0.5;entryY=1;entryDx=0;entryDy=0;" edge="1" parent="1" source="s79YdKbr_bM9OvfMAuBh-49" target="s79YdKbr_bM9OvfMAuBh-50">
          <mxGeometry relative="1" as="geometry">
            <mxPoint x="70" y="-770" as="targetPoint" />
          </mxGeometry>
        </mxCell>
        <mxCell id="s79YdKbr_bM9OvfMAuBh-49" value="Affiche le txt récupéré s&#39;il y en a." style="rounded=0;whiteSpace=wrap;html=1;" vertex="1" parent="1">
          <mxGeometry x="10" y="-730" width="120" height="60" as="geometry" />
        </mxCell>
        <mxCell id="s79YdKbr_bM9OvfMAuBh-53" style="edgeStyle=orthogonalEdgeStyle;rounded=0;orthogonalLoop=1;jettySize=auto;html=1;entryX=0.5;entryY=1;entryDx=0;entryDy=0;" edge="1" parent="1" source="s79YdKbr_bM9OvfMAuBh-50" target="s79YdKbr_bM9OvfMAuBh-52">
          <mxGeometry relative="1" as="geometry" />
        </mxCell>
        <mxCell id="s79YdKbr_bM9OvfMAuBh-50" value="Entrez le message de l&#39;utilisateur." style="rounded=1;whiteSpace=wrap;html=1;" vertex="1" parent="1">
          <mxGeometry x="10" y="-840" width="120" height="60" as="geometry" />
        </mxCell>
        <mxCell id="s79YdKbr_bM9OvfMAuBh-54" style="edgeStyle=orthogonalEdgeStyle;rounded=0;orthogonalLoop=1;jettySize=auto;html=1;entryX=0;entryY=0;entryDx=12.5;entryDy=0;entryPerimeter=0;" edge="1" parent="1" source="s79YdKbr_bM9OvfMAuBh-52" target="s79YdKbr_bM9OvfMAuBh-22">
          <mxGeometry relative="1" as="geometry" />
        </mxCell>
        <mxCell id="s79YdKbr_bM9OvfMAuBh-52" value="Chiffre le message et enregistre-le dans le fichier .txt." style="rounded=0;whiteSpace=wrap;html=1;" vertex="1" parent="1">
          <mxGeometry x="10" y="-950" width="120" height="60" as="geometry" />
        </mxCell>
      </root>
    </mxGraphModel>
  </diagram>
</mxfile>
